#N canvas 171 24 900 560 10;
#X obj 40 16 inlet~;
#X obj 100 16 inlet~;
#X obj 316 16 inlet;
#X obj 316 49 route \$1 \$2 \$3 \$4 monitor;
#X obj 52 212 looper_slot \$1;
#X obj 157 212 looper_slot \$2;
#X obj 267 212 looper_slot \$3;
#X obj 373 212 looper_slot \$4;
#X obj 116 312 +~;
#X obj 176 312 +~;
#X obj 236 312 +~;
#X obj 296 312 +~;
#X obj 216 378 +~;
#X obj 296 378 +~;
#X obj 485 212 *~ 0.8;
#X obj 582 212 *~ 0.8;
#X obj 497 290 *~;
#X obj 557 290 *~;
#X obj 530 87 pack f 10;
#X obj 530 130 line~;
#X obj 236 431 +~;
#X obj 316 431 +~;
#X obj 236 491 outlet~;
#X obj 316 491 outlet~;
#X obj 436 491 outlet;
#X connect 0 0 5 0;
#X connect 0 0 6 0;
#X connect 0 0 7 0;
#X connect 0 0 4 0;
#X connect 0 0 14 0;
#X connect 1 0 5 1;
#X connect 1 0 6 1;
#X connect 1 0 7 1;
#X connect 1 0 4 1;
#X connect 1 0 15 0;
#X connect 2 0 3 0;
#X connect 3 0 4 2;
#X connect 3 1 5 2;
#X connect 3 2 6 2;
#X connect 3 3 7 2;
#X connect 3 4 18 0;
#X connect 4 0 8 0;
#X connect 4 1 9 0;
#X connect 4 2 24 0;
#X connect 5 0 8 1;
#X connect 5 1 9 1;
#X connect 5 2 24 0;
#X connect 6 0 10 0;
#X connect 6 1 11 0;
#X connect 6 2 24 0;
#X connect 7 0 10 1;
#X connect 7 1 11 1;
#X connect 7 2 24 0;
#X connect 8 0 12 0;
#X connect 9 0 13 0;
#X connect 10 0 12 1;
#X connect 11 0 13 1;
#X connect 12 0 20 0;
#X connect 13 0 21 0;
#X connect 14 0 16 0;
#X connect 15 0 17 0;
#X connect 16 0 20 1;
#X connect 17 0 21 1;
#X connect 18 0 19 0;
#X connect 19 0 16 1;
#X connect 19 0 17 1;
#X connect 20 0 22 0;
#X connect 21 0 23 0;
