#N canvas 171 24 760 520 10;
#X obj 40 16 inlet~;
#X obj 100 16 inlet~;
#X obj 180 16 inlet;
#X obj 232 58 route \$1 \$2 monitor;
#X obj 40 150 looper_slot \$1;
#X obj 134 150 looper_slot \$2;
#X obj 83 250 +~;
#X obj 124 250 +~;
#X obj 232 150 *~ 0.8;
#X obj 291 150 *~ 0.8;
#X obj 276 210 *~;
#X obj 326 210 *~;
#X obj 298 86 pack f 10;
#X obj 367 119 line~;
#X obj 83 310 +~;
#X obj 144 310 +~;
#X obj 83 420 outlet~;
#X obj 144 420 outlet~;
#X obj 260 420 outlet;
#X connect 0 0 4 0;
#X connect 0 0 5 0;
#X connect 0 0 8 0;
#X connect 1 0 4 1;
#X connect 1 0 5 1;
#X connect 1 0 9 0;
#X connect 2 0 3 0;
#X connect 3 0 4 2;
#X connect 3 1 5 2;
#X connect 3 2 12 0;
#X connect 4 0 6 0;
#X connect 4 1 7 0;
#X connect 4 2 18 0;
#X connect 5 0 6 1;
#X connect 5 1 7 1;
#X connect 5 2 18 0;
#X connect 6 0 14 0;
#X connect 7 0 15 0;
#X connect 8 0 10 0;
#X connect 9 0 11 0;
#X connect 10 0 14 1;
#X connect 11 0 15 1;
#X connect 12 0 13 0;
#X connect 13 0 10 1;
#X connect 13 0 11 1;
#X connect 14 0 16 0;
#X connect 15 0 17 0;
