#N canvas 0 24 900 800 10;
#X obj 100 17 netreceive -u -b 9000;
#X obj 100 47 oscparse;
#X obj 101 78 list trim;
#X obj 100 116 route slot1 slot2 monitor connect;
#X obj 138 60 print OSC_IN;
#X obj 224 412 adc~ 9 10;
#X obj 70 700 dac~ 1 2;
#X obj 100 166 route rec play crop reset;
#X obj 181 182 print PLAY_CMD;
#X obj 158 231 sel 1 0;
#X obj 132 290 t b b;
#X obj 201 288 t b b;
#X msg 135 351 start;
#X msg 185 351 stop;
#X obj 244 336 timer;
#X obj 463 163 loadbang;
#X msg 463 196 1000;
#X msg 550 196 \; pd dsp 1;
#X obj 550 176 print DSP_ON;
#X obj 320 400 print LENGTH_MS;
#X obj 369 88 array define slot1_data 960000;
#X obj 187 485 tabwrite~ slot1_data;
#X obj 415 600 tabread4~ slot1_data;
#X obj 480 357 f;
#X obj 397 500 expr 1000.0 / max(1 \, $f1);
#X obj 381 550 phasor~;
#X obj 462 580 *~;
#X obj 85 620 *~ 0;
#X obj 200 260 print ---REC_START---;
#X obj 200 341 print ---REC_STOP---;
#X obj 250 200 sel 1;
#X msg 250 230 0;
#X obj 224 450 *~ 1;
#X obj 85 660 *~ 1;
#X obj 700 163 loadbang;
#X obj 700 193 samplerate~;
#X obj 700 223 / 1000;
#X obj 700 253 f;
#X obj 750 253 print SAMPLES_PER_MS;
#X obj 549 500 *;
#X obj 400 130 f;
#X obj 400 160 +;
#X obj 400 190 clip 100 30000;
#X obj 520 190 print PENDING_LENGTH;
#X obj 400 100 t b f;
#X obj 400 220 f;
#X obj 381 600 threshold~ 0.99 10 0.01 10;
#X obj 500 460 f;
#X obj 600 460 print ACTIVE_LENGTH;
#X obj 550 700 *~ 0;
#X obj 550 730 *~ 1;
#X obj 550 680 print MONITOR;
#X obj 800 50 netsend -u -b;
#X obj 800 20 loadbang;
#X msg 800 35 connect 127.0.0.1 9001;
#X obj 650 280 oscformat /state;
#X msg 650 250 list slot1 recording;
#X msg 650 310 list slot1 stopped;
#X obj 650 340 list prepend slot1 length;
#X msg 750 340 list slot1 playing;
#X msg 750 370 list slot1 paused;
#X connect 0 0 1 0;
#X connect 1 0 2 0;
#X connect 1 0 4 0;
#X connect 2 0 3 0;
#X connect 3 0 7 0;
#X connect 3 2 49 1;
#X connect 3 2 51 0;
#X connect 7 0 9 0;
#X connect 7 1 27 1;
#X connect 7 1 8 0;
#X connect 7 1 30 0;
#X connect 7 2 44 0;
#X connect 9 0 10 0;
#X connect 9 1 11 0;
#X connect 10 0 12 0;
#X connect 10 0 28 0;
#X connect 10 1 14 0;
#X connect 11 0 13 0;
#X connect 11 0 29 0;
#X connect 11 1 14 1;
#X connect 12 0 21 0;
#X connect 14 0 23 0;
#X connect 14 0 18 0;
#X connect 14 0 19 0;
#X connect 14 0 40 0;
#X connect 14 0 47 0;
#X connect 15 0 16 0;
#X connect 15 0 17 0;
#X connect 16 0 23 0;
#X connect 23 0 40 1;
#X connect 44 1 41 1;
#X connect 44 0 40 0;
#X connect 40 0 41 0;
#X connect 41 0 42 0;
#X connect 42 0 40 1;
#X connect 42 0 45 1;
#X connect 42 0 43 0;
#X connect 46 0 45 0;
#X connect 45 0 47 0;
#X connect 47 0 24 0;
#X connect 47 0 39 0;
#X connect 47 0 48 0;
#X connect 24 0 25 0;
#X connect 25 0 26 0;
#X connect 25 0 46 0;
#X connect 39 0 26 1;
#X connect 26 0 22 0;
#X connect 27 0 33 0;
#X connect 31 0 25 1;
#X connect 32 0 21 0;
#X connect 33 0 6 0;
#X connect 34 0 35 0;
#X connect 35 0 36 0;
#X connect 36 0 37 0;
#X connect 36 0 38 0;
#X connect 37 0 39 1;
#X connect 49 0 50 0;
#X connect 50 0 6 0;
#X obj 158 231 sel 1 0;
#X obj 550 490 change;
#X connect 53 0 54 0;
#X connect 54 0 52 0;
#X connect 3 3 54 0;
#X connect 56 0 55 0;
#X connect 57 0 55 0;
#X connect 58 0 55 0;
#X connect 59 0 55 0;
#X connect 60 0 55 0;
#X connect 55 0 52 0;
#X connect 9 0 56 0;
#X connect 9 1 57 0;
#X connect 30 0 59 0;
#X connect 30 1 60 0;
#X connect 47 0 58 0;
#X connect 30 0 31 0;
#X msg 250 100 0;
#X connect 10 0 63 0;
#X connect 63 0 41 1;
#X obj 250 580 expr 5.0 / max(1 \, $f1);
#X obj 250 610 expr~ min(1 \, (0.5 - abs($v1 - 0.5)) / max(0.001 \, $f2));
#X obj 300 640 *~;
#X connect 47 0 64 0;
#X connect 25 0 65 0;
#X connect 64 0 65 1;
#X connect 22 0 66 0;
#X connect 65 0 66 1;
#X connect 66 0 27 0;
#X obj 224 430 *~ 0.8;
#X connect 5 0 67 0;
#X connect 67 0 32 0;
#X connect 67 0 49 0;
#X obj 300 430 *~ 0.8;
#X obj 600 700 *~ 0;
#X obj 600 730 *~ 1;
#X connect 5 1 68 0;
#X connect 68 0 69 0;
#X connect 69 0 70 0;
#X connect 70 0 6 1;
#X connect 3 2 69 1;
#X obj 369 128 array define slot1_data_R 960000;
#X obj 187 515 tabwrite~ slot1_data_R;
#X obj 415 630 tabread4~ slot1_data_R;
#X obj 330 640 *~;
#X obj 115 620 *~ 0;
#X obj 115 660 *~ 1;
#X obj 224 450 *~ 1;
#X connect 68 0 77 0;
#X connect 77 0 72 0;
#X connect 12 0 72 0;
#X connect 26 0 73 0;
#X connect 73 0 74 0;
#X connect 65 0 74 1;
#X connect 74 0 75 0;
#X connect 7 1 75 1;
#X connect 75 0 76 0;
#X connect 76 0 6 1;
#X obj 300 180 t b b b;
#X msg 300 210 0;
#X obj 350 180 print RESET;
#X connect 7 3 78 0;
#X connect 7 3 80 0;
#X connect 78 2 79 0;
#X connect 79 0 41 1;
#X connect 78 1 23 0;
#X connect 78 0 40 0;
