#N canvas 171 24 900 600 10;
#X obj 13 8 netreceive -u -b 9000;
#X obj 14 29 oscparse;
#X obj 14 63 list trim;
#X obj 201 112 route slot1 slot2 monitor connect source;
#X obj 97 63 print OSC_IN;
#X obj 14 130 adc~ 1 2;
#X obj 184 479 dac~ 1 2;
#X obj 535 8 loadbang;
#X msg 535 63 \; pd dsp 1;
#X obj 549 37 print DSP_ON;
#X obj 14 283 looper_slot slot1;
#X obj 134 283 looper_slot slot2;
#X obj 14 165 *~ 0.8;
#X obj 58 165 *~ 0.8;
#X obj 100 366 +~;
#X obj 128 367 +~;
#X obj 312 270 *~ 0;
#X obj 344 270 *~ 0;
#X obj 312 291 *~ 1;
#X obj 344 291 *~ 1;
#X obj 312 244 print MONITOR;
#X obj 505 398 netsend -u -b;
#X obj 505 318 loadbang;
#X msg 505 364 connect 127.0.0.1 9001;
#X text 157 367 l/R Slot 1 + 2 Loop Audio;
#X text 14 110 AUDIO IN;
#X text 377 280 L/R MONITOR;
#X text 502 294 CONNECT;
#X obj 424 112 route main ch2 ch3;
#X msg 424 155 1 10;
#X msg 468 155 0 10;
#X obj 424 178 line~;
#X msg 522 155 1 10;
#X msg 566 155 0 10;
#X obj 522 178 line~;
#X msg 620 155 1 10;
#X msg 664 155 0 10;
#X obj 620 178 line~;
#X obj 424 132 t b b b;
#X obj 522 132 t b b b;
#X obj 620 132 t b b b;
#X obj 14 205 *~;
#X obj 58 205 *~;
#X obj 102 205 *~;
#X obj 146 205 *~;
#X obj 190 205 *~;
#X obj 234 205 *~;
#X obj 44 232 +~;
#X obj 132 232 +~;
#X obj 88 254 +~;
#X obj 176 254 +~;
#X connect 0 0 1 0;
#X connect 1 0 4 0;
#X connect 1 0 2 0;
#X connect 2 0 3 0;
#X connect 3 0 10 2;
#X connect 3 1 11 2;
#X connect 3 2 16 1;
#X connect 3 2 17 1;
#X connect 3 2 20 0;
#X connect 3 3 23 0;
#X connect 7 0 9 0;
#X connect 7 0 8 0;
#X connect 10 0 14 0;
#X connect 10 1 15 0;
#X connect 10 2 21 0;
#X connect 11 0 14 0;
#X connect 11 1 15 0;
#X connect 11 2 21 0;
#X connect 12 0 16 0;
#X connect 12 0 11 0;
#X connect 12 0 10 0;
#X connect 13 0 17 0;
#X connect 13 0 11 1;
#X connect 13 0 10 1;
#X connect 14 0 6 0;
#X connect 15 0 6 1;
#X connect 16 0 18 0;
#X connect 17 0 19 0;
#X connect 18 0 6 0;
#X connect 19 0 6 1;
#X connect 22 0 23 0;
#X connect 23 0 21 0;
#X connect 3 4 28 0;
#X connect 5 0 41 0;
#X connect 5 1 42 0;
#X connect 5 0 43 0;
#X connect 5 1 44 0;
#X connect 5 0 45 0;
#X connect 5 1 46 0;
#X connect 7 0 29 0;
#X connect 7 0 33 0;
#X connect 7 0 36 0;
#X connect 28 0 38 0;
#X connect 28 1 39 0;
#X connect 28 2 40 0;
#X connect 29 0 31 0;
#X connect 30 0 31 0;
#X connect 31 0 41 1;
#X connect 31 0 42 1;
#X connect 32 0 34 0;
#X connect 33 0 34 0;
#X connect 34 0 43 1;
#X connect 34 0 44 1;
#X connect 35 0 37 0;
#X connect 36 0 37 0;
#X connect 37 0 45 1;
#X connect 37 0 46 1;
#X connect 38 0 29 0;
#X connect 38 1 33 0;
#X connect 38 2 36 0;
#X connect 39 0 32 0;
#X connect 39 1 30 0;
#X connect 39 2 36 0;
#X connect 40 0 35 0;
#X connect 40 1 30 0;
#X connect 40 2 33 0;
#X connect 41 0 47 0;
#X connect 42 0 48 0;
#X connect 43 0 47 1;
#X connect 44 0 48 1;
#X connect 45 0 49 1;
#X connect 46 0 50 1;
#X connect 47 0 49 0;
#X connect 48 0 50 0;
#X connect 49 0 12 0;
#X connect 50 0 13 0;
