#N canvas 204 108 900 600 10;
#X obj 50 50 netreceive 9000 1;
#X obj 50 80 route /slot1 /slot2;
#X obj 50 500 dac~ 1 2;
#X text 600 30 AUDIO INPUT (Channels 9/10);
#X text 50 530 AUDIO OUTPUT (Channels 1/2);
#X text 50 30 OSC CONTROL;
#X obj 50 200 s slot1_cmd;
#X obj 150 200 s slot2_cmd;
#X obj 50 250 r slot1_cmd;
#X obj 50 280 route rec play;
#X obj 50 310 sel 1 0;
#X obj 50 340 t b b;
#X obj 100 340 t b b;
#X msg 50 370 start;
#X msg 100 370 stop;
#X obj 50 400 timer;
#X obj 50 430 tabwrite~ slot1_data;
#X obj 674 219 array define slot1_data 882000;
#X obj 392 469 tabread4~ slot1_data;
#X obj 310 509 *~ 1;
#X obj 200 340 f;
#X obj 200 370 expr 1000 / $f1;
#X obj 200 400 phasor~;
#X obj 250 370 * 44.1;
#X obj 200 430 *~;
#X obj 538 297 env~, f 13;
#X floatatom 538 345 5 0 0 0 - - - 0;
#X obj 600 50 adc~ 9 10;
#X connect 0 0 1 0;
#X connect 1 0 6 0;
#X connect 1 1 7 0;
#X connect 8 0 9 0;
#X connect 9 0 10 0;
#X connect 10 0 11 0;
#X connect 10 1 12 0;
#X connect 11 0 13 0;
#X connect 11 1 15 0;
#X connect 12 0 14 0;
#X connect 12 1 15 1;
#X connect 13 0 16 0;
#X connect 14 0 16 0;
#X connect 15 0 20 0;
#X connect 18 0 19 0;
#X connect 19 0 2 0;
#X connect 19 0 2 1;
#X connect 20 0 21 0;
#X connect 20 0 23 0;
#X connect 21 0 22 0;
#X connect 22 0 24 0;
#X connect 23 0 24 1;
#X connect 24 0 18 0;
#X connect 25 0 26 0;
#X connect 27 0 16 0;
#X connect 27 0 25 0;
