#N canvas 0 24 800 750 10;
#X obj 100 17 netreceive -u -b 9000;
#X obj 100 47 oscparse;
#X obj 101 78 list trim;
#X obj 100 116 route slot1 slot2;
#X obj 138 60 print OSC_IN;
#X obj 224 412 adc~ 9 10;
#X obj 70 650 dac~ 1 2;
#X obj 100 166 route rec play;
#X obj 181 182 print PLAY_CMD;
#X obj 158 231 sel 1 0;
#X obj 132 290 t b b;
#X obj 201 288 t b b;
#X msg 135 351 start;
#X msg 185 351 stop;
#X obj 244 336 timer;
#X obj 463 163 loadbang;
#X msg 463 196 1000;
#X msg 550 196 \; pd dsp 1;
#X obj 320 400 print LENGTH_MS;
#X obj 369 88 array define slot1_data 882000;
#X obj 187 485 tabwrite~ slot1_data;
#X obj 415 552 tabread4~ slot1_data;
#X obj 480 357 f;
#X obj 397 450 expr 1000.0 / $f1;
#X obj 549 450 expr $f1 * 44.1;
#X obj 381 500 phasor~;
#X obj 462 530 *~;
#X obj 85 580 *~ 0;
#X obj 200 260 print ---REC_START---;
#X obj 200 341 print ---REC_STOP---;
#X connect 0 0 1 0;
#X connect 1 0 2 0;
#X connect 1 0 4 0;
#X connect 2 0 3 0;
#X connect 3 0 7 0;
#X connect 5 0 20 0;
#X connect 7 0 9 0;
#X connect 7 1 27 1;
#X connect 7 1 8 0;
#X connect 9 0 10 0;
#X connect 9 1 11 0;
#X connect 10 0 12 0;
#X connect 10 0 28 0;
#X connect 10 1 14 0;
#X connect 11 0 13 0;
#X connect 11 0 29 0;
#X connect 11 1 14 1;
#X connect 12 0 20 0;
#X connect 13 0 20 0;
#X connect 14 0 22 0;
#X connect 14 0 18 0;
#X connect 15 0 16 0;
#X connect 15 0 17 0;
#X connect 16 0 22 0;
#X connect 22 0 23 0;
#X connect 22 0 24 0;
#X connect 23 0 25 0;
#X connect 25 0 26 0;
#X connect 24 0 26 1;
#X connect 26 0 21 0;
#X connect 21 0 27 0;
#X connect 27 0 6 0;
#X connect 27 0 6 1;
