#N canvas 0 0 450 300 12;
#X obj 50 30 inlet;
#X obj 50 250 outlet;
#X obj 50 80 t f b;
#X msg 150 80 length;
#X obj 50 160 list prepend #1;
#X obj 50 200 print LENGTH_MSG_OUT;
#X text 250 30 length_msg: formats "slotname length value" messages;
#X text 250 50 Usage: [length_msg slot1];
#X text 250 70 Input: float (length in ms);
#X text 250 90 Output: list (slot1 length 2000);
#X connect 0 0 2 0;
#X connect 2 0 4 0;
#X connect 2 1 3 0;
#X connect 3 0 4 0;
#X connect 4 0 5 0;
#X connect 4 0 1 0;
