#N canvas 171 24 454 693 12;
#X obj 76 45 inlet~;
#X obj 160 46 inlet;
#X obj 500 1033 outlet~;
#X obj 438 1033 outlet~;
#X obj 13 45 inlet~;
#X obj 563 1033 outlet;
#X obj 13 510 array define \$1_data 960000;
#X f 25;
#X obj 169 137 sel 1 0;
#X obj 203 202 t b b;
#X obj 149 202 t b b;
#X obj 209 332 timer;
#X msg 117 268 start;
#X msg 250 268 stop;
#X obj 736 344 +;
#X obj 736 302 f;
#X obj 673 385 clip 100 30000;
#X obj 673 516 f;
#X obj 737 135 t b f;
#X text 169 103 RECORDING;
#X text 736 103 CROP INPUT;
#X text 631 103 RESET;
#X obj 631 135 t b b b;
#X obj 854 625 f;
#X text 732 188 samples/ms;
#X obj 523 681 expr 1000 / max(1\\\, $f1);
#X obj 673 681 *;
#X obj 523 768 *~;
#X text 13 22 Left Audio;
#X text 76 22 Right Audio;
#X text 160 22 Control In;
#X text 773 707 Anti-Click;
#X obj 773 730 expr 5 / max(1\\\, $f1);
#X obj 612 782 expr~ min(1\\\, (0.5 - abs($v1 - 0.5)) / max(0.001\\\, $f2)), f 31;
#X obj 664 850 *~;
#X obj 664 881 *~;
#X obj 13 409 tabwrite~ \$1_data;
#X obj 520 850 tabread4~ \$1_data;
#X obj 520 881 tabread4~ \$1_data_R;
#X text 593 334 reset crop length;
#X obj 486 135 sel 1 0;
#X msg 487 551 0;
#X obj 746 881 *~ 0;
#X obj 746 850 *~ 0;
#X obj 819 850 *~ 1;
#X obj 819 881 *~ 1;
#X text 486 103 PLAY CONTROL;
#X obj 854 561 loadbang;
#X obj 854 580 samplerate~;
#X obj 854 602 / 1000;
#X text 819 916 Gain;
#X text 746 916 Gate;
#X text 523 916 Signal;
#X text 427 849 LEFT AUDIO;
#X text 427 880 RIGHT AUDIO;
#X text 13 484 AUDIO BUFFER;
#X text 664 916 Anticlick;
#X text 427 767 audio array pos;
#X text 458 680 play pos;
#X obj 210 767 oscformat /state;
#X obj 523 708 phasor~;
#X obj 13 551 array define \$1_data_R 960000;
#X f 26;
#X obj 77 386 tabwrite~ \$1_data_R;
#X obj 673 540 print PENDING_LENGTH;
#X obj 117 451 symbol \$1;
#X msg 88 177 recording;
#X msg 239 177 stopped;
#X msg 486 451 playing;
#X msg 500 167 paused;
#X obj 180 721 list prepend \$1;
#X obj 274 721 list prepend \$1 length;
#X msg 165 268 0;
#X text 777 301 current length;
#X obj 789 267 f;
#X text 826 266 original length;
#X text 777 343 current length + crop;
#X text 673 404 clipped length output fed back to \; right input of current length \; so crop is saved to current length \; making crop cumulative;
#X obj 342 23 route rec play crop reset clear;
#X obj 306 129 sel 1;
#X obj 306 155 t b b b;
#X text 306 103 CLEAR INPUT;
#X text 47 720 MESSAGE CONSOLE;
#X msg 320 234 0;
#X text 854 539 Inital load sets samplerate;
#X text 673 495 PLAY SIGNAL LENGTH;
#X text 346 233 clearing all state;
#X msg 286 268 stop;
#X obj 250 300 del 1000;
#X connect 0 0 61 0;
#X connect 1 0 76 0;
#X connect 4 0 35 0;
#X connect 7 0 9 0;
#X connect 7 0 64 0;
#X connect 7 1 65 0;
#X connect 7 1 8 0;
#X connect 8 0 10 1;
#X connect 8 1 86 0;
#X connect 9 0 70 0;
#X connect 9 0 11 0;
#X connect 9 0 85 0;
#X connect 9 1 10 0;
#X connect 10 0 14 0;
#X connect 10 0 72 0;
#X connect 11 0 35 0;
#X connect 11 0 61 0;
#X connect 12 0 35 0;
#X connect 12 0 61 0;
#X connect 13 0 15 0;
#X connect 14 0 13 0;
#X connect 15 0 14 1;
#X connect 15 0 16 0;
#X connect 16 0 62 0;
#X connect 16 0 31 0;
#X connect 16 0 25 0;
#X connect 16 0 24 0;
#X connect 16 0 69 0;
#X connect 17 0 14 0;
#X connect 17 1 13 1;
#X connect 21 0 14 0;
#X connect 21 1 72 0;
#X connect 21 2 70 0;
#X connect 22 0 25 1;
#X connect 24 0 59 0;
#X connect 25 0 26 1;
#X connect 26 0 36 0;
#X connect 26 0 37 0;
#X connect 31 0 32 1;
#X connect 32 0 33 1;
#X connect 32 0 34 1;
#X connect 33 0 42 0;
#X connect 34 0 41 0;
#X connect 36 0 33 0;
#X connect 37 0 34 0;
#X connect 39 0 66 0;
#X connect 39 0 40 0;
#X connect 39 1 67 0;
#X connect 40 0 59 1;
#X connect 41 0 44 0;
#X connect 42 0 43 0;
#X connect 43 0 3 0;
#X connect 44 0 2 0;
#X connect 46 0 47 0;
#X connect 47 0 48 0;
#X connect 48 0 22 0;
#X connect 58 0 5 0;
#X connect 59 0 26 0;
#X connect 59 0 32 0;
#X connect 64 0 68 0;
#X connect 65 0 68 0;
#X connect 66 0 68 0;
#X connect 67 0 68 0;
#X connect 68 0 58 0;
#X connect 69 0 58 0;
#X connect 70 0 13 1;
#X connect 72 0 14 1;
#X connect 76 0 7 0;
#X connect 76 1 39 0;
#X connect 76 1 42 1;
#X connect 76 1 41 1;
#X connect 76 2 17 0;
#X connect 76 3 21 0;
#X connect 76 4 77 0;
#X connect 77 0 78 0;
#X connect 78 0 65 0;
#X connect 78 1 81 0;
#X connect 78 2 12 0;
#X connect 81 0 42 1;
#X connect 81 0 41 1;
#X connect 81 0 59 1;
#X connect 81 0 13 1;
#X connect 81 0 72 1;
#X connect 81 0 14 1;
#X connect 81 0 16 1;
#X connect 81 0 69 0;
#X connect 85 0 86 0;
#X connect 86 0 12 0;
